<?xml version="1.0" encoding="utf-8"?>
<!-- Generator: Adobe Illustrator 28.0.0, SVG Export Plug-In . SVG Version: 6.00 Build 0)  -->
<svg version="1.1" id="Layer_1" xmlns="http://www.w3.org/2000/svg" xmlns:xlink="http://www.w3.org/1999/xlink" x="0px" y="0px"
	 viewBox="0 0 1920 1080" style="enable-background:new 0 0 1920 1080;" xml:space="preserve">
<style type="text/css">
	.st0{fill:#FAFAFA;}
</style>
<g>
	<g>
		<path class="st0" d="M192.59,356.25c11.33-3.94,22.63-8.01,33.85-12.25c27.37-9.76,54.76-19.67,81.75-30.28
			c21.68-8.52,43.24-17.59,64.78-26.56c16.89-7.03,33.82-14.28,50.9-20.61c13.8-5.11,27.97-10.31,42.2-13.32
			c11.95-2.53,23.72-4.11,35.87-4.36c6.08-0.13,12.29,0.65,18.25,1.94c5.96,1.29,11.9,3.34,17.81,6.12
			c5.9,2.78,10.73,6.84,14.34,12.12c3.61,5.28,5.32,11.44,4.85,18.54c-0.35,16.03-5.94,30.5-12.85,44.22
			c-11.3,22.45-27.61,43.54-43.2,63.97c-45.6,59.73-95.28,119.5-154.17,166.79c-8.75,7.06-17.51,14.12-26.28,21.17
			c-23.28,18-48.7,33.37-77.24,39.63c-25.24,5.53-50.71,7.36-75.16,1.33c-21.24-5.23-41.97-15.03-60.11-27.73
			c-18.81-13.17-36.94-30.28-49.58-50.26c-9.88-15.61-19.09-32.5-21.95-50.48c-2.26-14.2-2.24-28.75,2.65-43.1
			c4.35-12.77,11.84-24.28,21.63-33.53c11.02-10.41,23.82-18.52,36.84-25.43c14.37-7.63,30.03-14.21,45.43-20.14
			C159.41,367.8,176.07,362.02,192.59,356.25z M436.43,314.55c-4.48-0.15-9.71,0.7-15.85,2.51c-6.14,1.81-12.26,4.03-18.41,6.66
			c-6.15,2.63-13.27,5.78-22.12,10.69c-8.85,4.9-16.8,9.3-23.67,13.24c-8.54,4.9-17,9.98-25.41,15.08
			c-10.12,6.14-18.13,10.96-23.68,14.44c-5.56,3.48-12.73,8-21.6,13.63c-8.05,5.1-16.09,10.45-23.86,15.92
			c-7.59,5.33-15.12,11.29-22.02,17.49c-7.25,6.51-13.73,13.55-18.16,19.83c-4.43,6.28-6.68,12.3-6.7,18.01
			c-0.02,5.71,3.06,10.43,8.82,12.84c6.25,2.61,13.9,3.31,21.88,2.39c7.97-0.92,15.9-3.01,23.72-6.15
			c9.08-3.65,18.2-8.92,26.25-14.4c8.4-5.72,16.95-11.38,25.19-17.36c8.55-6.2,16.8-12.89,24.95-19.55
			c7.8-6.38,15.63-12.85,23.34-19.4c7.64-6.49,15.27-13.03,22.88-19.56c6.59-5.65,12.44-10.79,17.58-15.48
			c5.14-4.69,10.59-9.83,16.28-15.38c5.69-5.55,10.09-10.6,12.98-14.36c2.89-3.76,5.11-7.26,6.7-10.52
			c1.59-3.26,1.58-5.79,0.06-7.61C444.05,315.69,441.01,314.71,436.43,314.55z"/>
		<path class="st0" d="M475.87,477.92c35.4-59.84,81.01-115.85,121.25-174.21c0.58-0.84,0.87-1.26,1.44-2.09
			c0.55-0.81,2.43-3.69,5.42-8.56c2.98-4.87,5.47-9.01,7.5-12.42c4.72-7.93,9.09-16.59,15.49-23.37c1.36-0.52,41.68-1,60.47-1.11
			c7.77-0.01,11.65-0.02,19.42-0.03c0.72,0.11,4.79,0.39,5.02,2.05c-3.15,9.83-6.67,19.54-10.47,29.13
			c-5.13,12.95-10.69,25.76-16.44,38.41c-5.63,12.39-11.4,24.76-17.17,37.11c-17.2,37.43-33.18,75.32-48.12,113.71
			c-3.41,8.88-6.11,16.46-8,22.4c-1.9,5.95-3.86,13.21-5.84,21.96c-1.98,8.76-2.29,15.78-0.86,20.72c1.43,4.95,4.48,7.81,9.1,8.42
			c6.47,0.85,13.43-3.91,20.49-13.72c7.35-10.2,12.73-21.76,16.49-33.74c12.73-39.79,26.27-79.28,41.12-118.33
			c6.14-16.5,12.76-32.86,19.43-49.12c5.83-14.22,11.66-28.51,16.75-43.05c1.88-5.13,2.78-7.65,4.51-12.65
			c0.44-1.27,1-3.21,1.66-5.79c0.66-2.58,1.2-4.56,1.64-5.93c1.05-3.29,1.55-4.93,2.53-8.22c1.07-2.62,2.99-4.54,5.1-4.79
			c23.89-2.83,54.67,0.45,82.01,0.81c2.28-0.05,3.94-0.08,5.58-0.18c0.79,0.35,0.48,1.44,0.34,2.99
			c-5.15,31.84-11.4,63.49-17.13,95.22c-3.47,20.27-6.87,40.54-10.18,60.84c-2.47,15.12-5.03,30.24-7.54,45.35
			c-2.92,17.59-5.71,35.21-8.24,52.86c-5.49,38.16-13.28,76.14-24.78,112.57c-10.18,32.25-22.56,65.24-40.7,93.77
			c-14.59,22.96-32.06,45.08-54.17,61.16c-17.8,12.94-38.36,25.24-60.55,28.34c-20.76,2.9-41.19,1.9-61.05-3.41
			c-19.14-5.11-38.09-13.9-53.88-25.68c-17.31-12.92-30.5-30.83-41.7-50.09c-12.28-21.1-19.65-45.82-22.7-70.38
			c-3.62-29.16,0.53-58.4,7.13-86.64C443.99,538.96,458.81,506.77,475.87,477.92z"/>
		<path class="st0" d="M879.47,827.84c-9.03-0.17-10.69-6.84-10.37-35.86c2.47-88.19,6.09-176.46,10.49-264.47
			c2.57-51.24,5.64-102.58,7.61-153.9c0.05-1.24,0.1-3.27,0.14-6.04c0.05-2.77,0.1-4.98,0.17-6.67c0.07-1.69,0.06-3.79-0.01-6.26
			c-0.07-2.48-0.28-4.41-0.62-5.83c-0.34-1.41-0.75-2.82-1.25-4.21c-0.5-1.39-1.21-2.41-2.13-3.06c-0.92-0.65-2.05-0.98-3.39-0.98
			c-16.01-0.05-32.01-0.16-48.02-0.3c-4.46-8.32-1.51-19.25-0.23-28.1c0.33-2.29,1-5.73,1.88-10.14c0.88-4.41,1.41-7.36,1.64-8.93
			c0.09-0.61,0.31-2.8,0.64-6.51c0.33-3.71,0.67-6.9,1.04-9.61c1.7-12.48,3.32-18.6,5.23-18.6c0.76,0,1.5,0.26,1.97,0.35
			c23.23,4.74,59.22-0.4,88.82-0.85c29.28-0.44,58.58-0.91,87.85-0.97c4.86-0.01,8.04,0.51,9.54,1.55c1.5,1.04,2.57,3.06,3.23,6.07
			c0.43,1.94,0.64,2.91,1.09,4.86c2.06,9.12,4.45,18.21,6.89,27.19c2.67,9.82,5.51,19.71,8.29,29.55c1.98,7,1.47,10.77-1.65,10.82
			c-9.33,0.14-18.69,0.06-28.01-0.03c-12.4-0.11-21.73-0.18-27.95-0.12c24.76,152.76,40.92,306.76,55.52,460.78
			c0.07,14.67-2.79,23.67-7.41,24.56c-8.55,1.64-19.31,1.28-28.91,1.63L949,825.44c-11.2-0.09-24.85,1.2-36.05,1.2"/>
		<path class="st0" d="M1165.71,758.16c-1.91-10.37-2.86-15.46-4.74-25.45c-16.17-85.81-33.29-171.69-54.55-256.26
			c-12-47.72-25.11-95.32-39.8-142.37c-7.85-25.26-15.5-50.47-21.68-76.19c55.57-0.13,111.15,0.05,166.72,0.09
			c10.77,20,23.31,38.26,36.98,56.36c0.27,0.35,0.95,1.23,2.05,2.65c1.1,1.42,1.85,2.37,2.22,2.84c0.37,0.48,0.99,1.34,1.87,2.6
			c0.88,1.26,1.38,2.14,1.49,2.63c0.11,0.49,0.27,1.19,0.49,2.12c0.22,0.92,0.14,1.58-0.24,1.97c-0.38,0.39-1.01,0.75-1.88,1.09
			c-0.87,0.34-1.98,0.53-3.33,0.57c-1.88,0.06-2.81,0.09-4.69,0.14c-26.6,0.71-53.2,1.07-79.81,0.43c0.92,2.12,2.33,5.41,4.29,10.02
			c1.97,4.62,3.85,8.95,5.58,12.79c1.72,3.84,3.57,7.65,5.53,11.42c28.4-1.11,56.78-2.42,85.16-3.93c3.58-0.19,6.41,0.26,8.49,1.38
			c2.09,1.12,4.14,3.01,6.18,5.72c0.57,0.76,1.42,1.97,2.55,3.65c1.14,1.69,2,2.92,2.57,3.69c8.68,11.6,17.51,23.17,26.11,34.78
			c9.53,12.87,19.88,26.15,27.89,39.31c2.29,3.75,0.49,5.12-2.3,5.62c-31.74,7.49-63.7,14.87-96.11,18.9
			c-2.21,0.27-3.31,0.4-5.52,0.66c8.12,18.43,15.93,36.99,23.63,55.6c19.21-3,38.12-8.11,56.78-13.28
			c18.19-5.04,36.47-10.4,54.95-14.33c9.82-2.09,17.66,0.07,23.59,6.71c6.13,9.78,12.18,19.6,18.16,29.48
			c12.01,20,23.8,40.23,35.07,60.55c12.47,22.47,24.23,46.17,35.73,68.63c3.68,7.19,11.61,25.98,1.98,31
			c-12.61,6.58-28.34,11.76-42.6,17.12c-14.58,5.48-29.4,10.73-44.11,16.01c-36.91,13.25-73.73,27.37-110.71,40.11
			c-34.8,12-70.28,23.35-106.38,31.42c-6.25,1.74-8.19-7.31-11.98-21.45C1168.25,769.92,1166.39,761.81,1165.71,758.16z"/>
		<path class="st0" d="M1875.42,441.11c-1.63,5.57-2.93,10.95-12.55,20.96c-12.15,12.64-25.97,23.84-39.9,34.18
			c-8.89,6.6-18.51,12.97-27.28,19.54c-7.65,5.72-15.33,12.13-23.56,17.4c-7.82,5.98-15.73,11.88-23.69,17.68
			c-10.45,0.87-21.14-7.92-29.05-13.16c-20.04-13.27-39.63-28.55-59.27-42.92c-13.16-9.63-26.46-19.17-39.86-28.51
			c-14.35-11.08-30.14-22.85-47.27-29.3c-9.92-3.74-20.89-3.82-31.08-1.05c-3.77,1.01-5.65,1.51-9.43,2.5
			c52.53,45.12,101.3,94.09,145.89,147.08c2.06,3.08,2.33,6.59,0.8,10.55c-1.53,3.96-4.99,8.18-10.36,12.53
			c-5.38,4.35-10.32,8.02-14.8,10.97c-4.48,2.96-10.58,6.59-18.31,10.8c-7.73,4.21-12.47,6.74-14.15,7.71
			c-12.15,6.96-24.36,13.78-36.66,20.47c-15.7,8.43-36.02,23.94-47.01,25.46c-2.23,0.31-7.79,0.88-10.93-3.67
			c-50.16-97.82-108.76-190.43-178.51-275.46c-38.28-46.66-84.95-90.3-114.89-143.08c-1.82-3.22,1.15-4.85,8.78-4.85
			c41.59,0,83.18-0.04,124.76-0.11c23.48,0.69,45.97,7.98,67.28,17.42c27.78,12.31,54.71,26.76,81.7,40.6
			c13.67,7.01,67.64,27.82,54.13,51.76c8.52,0.28,17.62,1.1,27.35,2.34c9.44,1.2,18.94,2.64,28.31,4.32
			c10.07,1.82,20.19,3.97,30.15,6.28c10.01,2.32,20.09,4.68,30.08,7.19c10.43,2.63,20.83,5.54,31.16,8.5
			c10.02,2.87,20.08,5.78,30.06,8.87c9.87,3.05,19.76,6.06,29.65,9.06c9.06,2.75,18.13,5.48,27.22,8.14
			c9.75,3.5,19.47,7.07,29.16,10.73c3.95,0.99,10.24,1.83,18.82,2.3c8.58,0.47,15.05,0.63,18.25,1.46
			C1874.41,436.83,1875.76,438.56,1875.42,441.11z M1388.04,325.6c8.05,6.34,14.44,11.14,18.85,14.57
			c4.41,3.43,10.74,7.92,19.24,13.47c8.5,5.56,15.73,9.47,21.46,11.63c5.21-0.59,9.4-1.7,12.54-3.28c3.14-1.58,5.18-3.76,6.12-6.47
			c0.93-2.71-0.7-6.35-4.75-10.88c-4.05-4.53-10.6-9.84-18.95-15.28c-4.7-3.07-9.37-5.73-14.01-8.02c-4.64-2.28-9.06-4.08-13.32-5.4
			c-4.26-1.32-8.06-2.37-11.44-3.16c-3.37-0.78-6.88-1.31-10.54-1.56c-3.65-0.26-6.46-0.41-8.42-0.45
			c-1.96-0.05-4.24-0.03-6.84,0.05c-1.56,0.05-2.33,0.07-3.89,0.12c-0.74,0.78-0.06,2.29,2.13,4.51
			C1378.41,317.68,1382.27,321.05,1388.04,325.6z"/>
	</g>
</g>
</svg>
